{
  "accessors": [
    {
      "bufferView": 2,
      "componentType": 5126,
      "count": 18432,
      "max": [
        11.202159881591797,
        11.029669761657715,
        5.7175798416137695
      ],
      "min": [
        -10.694339752197266,
        -11.064959526062012,
        -5.26786994934082
      ],
      "type": "VEC3"
    },
    {
      "bufferView": 2,
      "byteOffset": 221184,
      "componentType": 5126,
      "count": 18432,
      "max": [
        0.9997494220733643,
        0.9998327493667603,
        0.9997767806053162
      ],
      "min": [
        -0.9997501373291016,
        -0.9998313188552856,
        -0.9997767806053162
      ],
      "type": "VEC3"
    },
    {
      "bufferView": 1,
      "componentType": 5126,
      "count": 18432,
      "max": [
        0.9999300241470337,
        0.5
      ],
      "min": [
        7.000000186963007e-05,
        7.000000186963007e-05
      ],
      "type": "VEC2"
    },
    {
      "bufferView": 0,
      "componentType": 5125,
      "count": 18432,
      "type": "SCALAR"
    },
    {
      "bufferView": 2,
      "byteOffset": 442368,
      "componentType": 5126,
      "count": 18432,
      "max": [
        11.202159881591797,
        11.029669761657715,
        5.7175798416137695
      ],
      "min": [
        -10.694339752197266,
        -11.064959526062012,
        -5.26786994934082
      ],
      "type": "VEC3"
    },
    {
      "bufferView": 2,
      "byteOffset": 663552,
      "componentType": 5126,
      "count": 18432,
      "max": [
        0.9997494220733643,
        0.9998327493667603,
        0.9997767806053162
      ],
      "min": [
        -0.9997501373291016,
        -0.9998313188552856,
        -0.9997767806053162
      ],
      "type": "VEC3"
    },
    {
      "bufferView": 1,
      "byteOffset": 147456,
      "componentType": 5126,
      "count": 18432,
      "max": [
        0.9999300241470337,
        0.5
      ],
      "min": [
        7.000000186963007e-05,
        7.000000186963007e-05
      ],
      "type": "VEC2"
    },
    {
      "bufferView": 0,
      "byteOffset": 73728,
      "componentType": 5125,
      "count": 18432,
      "type": "SCALAR"
    },
    {
      "bufferView": 2,
      "byteOffset": 884736,
      "componentType": 5126,
      "count": 18432,
      "max": [
        11.202159881591797,
        11.029669761657715,
        5.7175798416137695
      ],
      "min": [
        -10.694339752197266,
        -11.064959526062012,
        -5.26786994934082
      ],
      "type": "VEC3"
    },
    {
      "bufferView": 2,
      "byteOffset": 1105920,
      "componentType": 5126,
      "count": 18432,
      "max": [
        0.9997494220733643,
        0.9998327493667603,
        0.9997767806053162
      ],
      "min": [
        -0.9997501373291016,
        -0.9998313188552856,
        -0.9997767806053162
      ],
      "type": "VEC3"
    },
    {
      "bufferView": 1,
      "byteOffset": 294912,
      "componentType": 5126,
      "count": 18432,
      "max": [
        0.9999300241470337,
        0.5
      ],
      "min": [
        7.000000186963007e-05,
        7.000000186963007e-05
      ],
      "type": "VEC2"
    },
    {
      "bufferView": 0,
      "byteOffset": 147456,
      "componentType": 5125,
      "count": 18432,
      "type": "SCALAR"
    },
    {
      "bufferView": 2,
      "byteOffset": 1327104,
      "componentType": 5126,
      "count": 18432,
      "max": [
        11.202159881591797,
        11.029669761657715,
        5.7175798416137695
      ],
      "min": [
        -10.694339752197266,
        -11.064959526062012,
        -5.26786994934082
      ],
      "type": "VEC3"
    },
    {
      "bufferView": 2,
      "byteOffset": 1548288,
      "componentType": 5126,
      "count": 18432,
      "max": [
        0.9997494220733643,
        0.9998327493667603,
        0.9997767806053162
      ],
      "min": [
        -0.9997501373291016,
        -0.9998313188552856,
        -0.9997767806053162
      ],
      "type": "VEC3"
    },
    {
      "bufferView": 1,
      "byteOffset": 442368,
      "componentType": 5126,
      "count": 18432,
      "max": [
        0.9999300241470337,
        0.5
      ],
      "min": [
        7.000000186963007e-05,
        7.000000186963007e-05
      ],
      "type": "VEC2"
    },
    {
      "bufferView": 0,
      "byteOffset": 221184,
      "componentType": 5125,
      "count": 18432,
      "type": "SCALAR"
    },
    {
      "bufferView": 3,
      "componentType": 5126,
      "count": 500,
      "max": [
        20.833330154418945
      ],
      "min": [
        0.041669998317956924
      ],
      "type": "SCALAR"
    },
    {
      "bufferView": 4,
      "componentType": 5126,
      "count": 500,
      "max": [
        24.0,
        0.0,
        0.0
      ],
      "min": [
        12.0,
        0.0,
        0.0
      ],
      "type": "VEC3"
    },
    {
      "bufferView": 3,
      "byteOffset": 2000,
      "componentType": 5126,
      "count": 500,
      "max": [
        20.833330154418945
      ],
      "min": [
        0.041669998317956924
      ],
      "type": "SCALAR"
    },
    {
      "bufferView": 5,
      "componentType": 5126,
      "count": 500,
      "max": [
        0.0,
        0.0,
        1.0,
        0.5
      ],
      "min": [
        0.0,
        0.0,
        -0.9999399781227112,
        -0.009440000168979168
      ],
      "type": "VEC4"
    },
    {
      "bufferView": 3,
      "byteOffset": 4000,
      "componentType": 5126,
      "count": 2,
      "max": [
        20.833330154418945
      ],
      "min": [
        0.041669998317956924
      ],
      "type": "SCALAR"
    },
    {
      "bufferView": 4,
      "byteOffset": 6000,
      "componentType": 5126,
      "count": 2,
      "max": [
        1.0,
        1.0,
        1.0
      ],
      "min": [
        1.0,
        1.0,
        1.0
      ],
      "type": "VEC3"
    },
    {
      "bufferView": 3,
      "byteOffset": 4008,
      "componentType": 5126,
      "count": 500,
      "max": [
        20.833330154418945
      ],
      "min": [
        0.041669998317956924
      ],
      "type": "SCALAR"
    },
    {
      "bufferView": 4,
      "byteOffset": 6024,
      "componentType": 5126,
      "count": 500,
      "max": [
        12.0,
        0.0,
        0.0
      ],
      "min": [
        0.0,
        0.0,
        0.0
      ],
      "type": "VEC3"
    },
    {
      "bufferView": 3,
      "byteOffset": 6008,
      "componentType": 5126,
      "count": 500,
      "max": [
        20.833330154418945
      ],
      "min": [
        0.041669998317956924
      ],
      "type": "SCALAR"
    },
    {
      "bufferView": 5,
      "byteOffset": 8000,
      "componentType": 5126,
      "count": 500,
      "max": [
        0.0,
        0.0,
        -0.5,
        0.8660299777984619
      ],
      "min": [
        0.0,
        0.0,
        -0.8660299777984619,
        0.5
      ],
      "type": "VEC4"
    },
    {
      "bufferView": 3,
      "byteOffset": 8008,
      "componentType": 5126,
      "count": 2,
      "max": [
        20.833330154418945
      ],
      "min": [
        0.041669998317956924
      ],
      "type": "SCALAR"
    },
    {
      "bufferView": 4,
      "byteOffset": 12024,
      "componentType": 5126,
      "count": 2,
      "max": [
        1.0,
        1.0,
        1.0
      ],
      "min": [
        1.0,
        1.0,
        1.0
      ],
      "type": "VEC3"
    },
    {
      "bufferView": 3,
      "byteOffset": 8016,
      "componentType": 5126,
      "count": 500,
      "max": [
        20.833330154418945
      ],
      "min": [
        0.041669998317956924
      ],
      "type": "SCALAR"
    },
    {
      "bufferView": 4,
      "byteOffset": 12048,
      "componentType": 5126,
      "count": 500,
      "max": [
        0.0,
        0.0,
        0.0
      ],
      "min": [
        -12.0,
        0.0,
        0.0
      ],
      "type": "VEC3"
    },
    {
      "bufferView": 3,
      "byteOffset": 10016,
      "componentType": 5126,
      "count": 500,
      "max": [
        20.833330154418945
      ],
      "min": [
        0.041669998317956924
      ],
      "type": "SCALAR"
    },
    {
      "bufferView": 5,
      "byteOffset": 16000,
      "componentType": 5126,
      "count": 500,
      "max": [
        0.0,
        0.0,
        0.0,
        1.0
      ],
      "min": [
        0.0,
        0.0,
        -0.5,
        0.8660299777984619
      ],
      "type": "VEC4"
    },
    {
      "bufferView": 3,
      "byteOffset": 12016,
      "componentType": 5126,
      "count": 2,
      "max": [
        20.833330154418945
      ],
      "min": [
        0.041669998317956924
      ],
      "type": "SCALAR"
    },
    {
      "bufferView": 4,
      "byteOffset": 18048,
      "componentType": 5126,
      "count": 2,
      "max": [
        1.0,
        1.0,
        1.0
      ],
      "min": [
        1.0,
        1.0,
        1.0
      ],
      "type": "VEC3"
    },
    {
      "bufferView": 3,
      "byteOffset": 12024,
      "componentType": 5126,
      "count": 500,
      "max": [
        20.833330154418945
      ],
      "min": [
        0.041669998317956924
      ],
      "type": "SCALAR"
    },
    {
      "bufferView": 4,
      "byteOffset": 18072,
      "componentType": 5126,
      "count": 500,
      "max": [
        -12.0,
        0.0,
        0.0
      ],
      "min": [
        -24.0,
        0.0,
        0.0
      ],
      "type": "VEC3"
    },
    {
      "bufferView": 3,
      "byteOffset": 14024,
      "componentType": 5126,
      "count": 500,
      "max": [
        20.833330154418945
      ],
      "min": [
        0.041669998317956924
      ],
      "type": "SCALAR"
    },
    {
      "bufferView": 5,
      "byteOffset": 24000,
      "componentType": 5126,
      "count": 500,
      "max": [
        0.0,
        0.0,
        0.5,
        1.0
      ],
      "min": [
        0.0,
        0.0,
        0.0,
        0.8660299777984619
      ],
      "type": "VEC4"
    },
    {
      "bufferView": 3,
      "byteOffset": 16024,
      "componentType": 5126,
      "count": 2,
      "max": [
        20.833330154418945
      ],
      "min": [
        0.041669998317956924
      ],
      "type": "SCALAR"
    },
    {
      "bufferView": 4,
      "byteOffset": 24072,
      "componentType": 5126,
      "count": 2,
      "max": [
        1.0,
        1.0,
        1.0
      ],
      "min": [
        1.0,
        1.0,
        1.0
      ],
      "type": "VEC3"
    }
  ],
  "animations": [
    {
      "channels": [
        {
          "sampler": 0,
          "target": {
            "node": 6,
            "path": "translation"
          }
        },
        {
          "sampler": 1,
          "target": {
            "node": 6,
            "path": "rotation"
          }
        },
        {
          "sampler": 2,
          "target": {
            "node": 6,
            "path": "scale"
          }
        },
        {
          "sampler": 3,
          "target": {
            "node": 12,
            "path": "translation"
          }
        },
        {
          "sampler": 4,
          "target": {
            "node": 12,
            "path": "rotation"
          }
        },
        {
          "sampler": 5,
          "target": {
            "node": 12,
            "path": "scale"
          }
        },
        {
          "sampler": 6,
          "target": {
            "node": 10,
            "path": "translation"
          }
        },
        {
          "sampler": 7,
          "target": {
            "node": 10,
            "path": "rotation"
          }
        },
        {
          "sampler": 8,
          "target": {
            "node": 10,
            "path": "scale"
          }
        },
        {
          "sampler": 9,
          "target": {
            "node": 4,
            "path": "translation"
          }
        },
        {
          "sampler": 10,
          "target": {
            "node": 4,
            "path": "rotation"
          }
        },
        {
          "sampler": 11,
          "target": {
            "node": 4,
            "path": "scale"
          }
        }
      ],
      "name": "Take 01",
      "samplers": [
        {
          "input": 16,
          "interpolation": "LINEAR",
          "output": 17
        },
        {
          "input": 18,
          "interpolation": "LINEAR",
          "output": 19
        },
        {
          "input": 20,
          "interpolation": "LINEAR",
          "output": 21
        },
        {
          "input": 22,
          "interpolation": "LINEAR",
          "output": 23
        },
        {
          "input": 24,
          "interpolation": "LINEAR",
          "output": 25
        },
        {
          "input": 26,
          "interpolation": "LINEAR",
          "output": 27
        },
        {
          "input": 28,
          "interpolation": "LINEAR",
          "output": 29
        },
        {
          "input": 30,
          "interpolation": "LINEAR",
          "output": 31
        },
        {
          "input": 32,
          "interpolation": "LINEAR",
          "output": 33
        },
        {
          "input": 34,
          "interpolation": "LINEAR",
          "output": 35
        },
        {
          "input": 36,
          "interpolation": "LINEAR",
          "output": 37
        },
        {
          "input": 38,
          "interpolation": "LINEAR",
          "output": 39
        }
      ]
    }
  ],
  "asset": {
    "extras": {
      "author": "ayvlasov (https://sketchfab.com/ayvlasov)",
      "license": "CC-BY-4.0 (http://creativecommons.org/licenses/by/4.0/)",
      "source": "https://sketchfab.com/3d-models/snowflakes-animation-dd5b7efa9d82415a83f2d0348930300e",
      "title": "Snowflakes animation"
    },
    "generator": "Sketchfab-12.67.0",
    "version": "2.0"
  },
  "bufferViews": [
    {
      "buffer": 0,
      "byteLength": 294912,
      "name": "floatBufferViews",
      "target": 34963
    },
    {
      "buffer": 0,
      "byteLength": 589824,
      "byteOffset": 294912,
      "byteStride": 8,
      "name": "floatBufferViews",
      "target": 34962
    },
    {
      "buffer": 0,
      "byteLength": 1769472,
      "byteOffset": 884736,
      "byteStride": 12,
      "name": "floatBufferViews",
      "target": 34962
    },
    {
      "buffer": 0,
      "byteLength": 16032,
      "byteOffset": 2654208,
      "name": "floatBufferViews"
    },
    {
      "buffer": 0,
      "byteLength": 24096,
      "byteOffset": 2670240,
      "byteStride": 12,
      "name": "floatBufferViews"
    },
    {
      "buffer": 0,
      "byteLength": 32000,
      "byteOffset": 2694336,
      "byteStride": 16,
      "name": "floatBufferViews"
    }
  ],
  "buffers": [
    {
      "byteLength": 2726336,
      "uri": "scene.bin"
    }
  ],
  "images": [
    {
      "uri": "textures/MaterialFlake_baseColor.png"
    },
    {
      "uri": "textures/MaterialFlake_emissive.png"
    }
  ],
  "materials": [
    {
      "alphaMode": "BLEND",
      "doubleSided": true,
      "emissiveFactor": [
        1.0,
        1.0,
        1.0
      ],
      "emissiveTexture": {
        "index": 1
      },
      "name": "MaterialFlake",
      "pbrMetallicRoughness": {
        "baseColorFactor": [
          1.0,
          1.0,
          1.0,
          0.73
        ],
        "baseColorTexture": {
          "index": 0
        },
        "metallicFactor": 0.0,
        "roughnessFactor": 0.6
      }
    }
  ],
  "meshes": [
    {
      "name": "Snowflakes_0",
      "primitives": [
        {
          "attributes": {
            "NORMAL": 1,
            "POSITION": 0,
            "TEXCOORD_0": 2
          },
          "indices": 3,
          "material": 0,
          "mode": 4
        }
      ]
    },
    {
      "name": "Snowflakes.003_0",
      "primitives": [
        {
          "attributes": {
            "NORMAL": 5,
            "POSITION": 4,
            "TEXCOORD_0": 6
          },
          "indices": 7,
          "material": 0,
          "mode": 4
        }
      ]
    },
    {
      "name": "Snowflakes.001_0",
      "primitives": [
        {
          "attributes": {
            "NORMAL": 9,
            "POSITION": 8,
            "TEXCOORD_0": 10
          },
          "indices": 11,
          "material": 0,
          "mode": 4
        }
      ]
    },
    {
      "name": "Snowflakes.002_0",
      "primitives": [
        {
          "attributes": {
            "NORMAL": 13,
            "POSITION": 12,
            "TEXCOORD_0": 14
          },
          "indices": 15,
          "material": 0,
          "mode": 4
        }
      ]
    }
  ],
  "nodes": [
    {
      "children": [
        1
      ],
      "matrix": [
        0.18572549521923065,
        0.0,
        0.0,
        0.0,
        0.0,
        4.123934421045986e-17,
        -0.18572549521923065,
        0.0,
        0.0,
        0.18572549521923065,
        4.123934421045986e-17,
        0.0,
        0.0,
        0.0,
        0.0,
        1.0
      ],
      "name": "Sketchfab_model"
    },
    {
      "children": [
        2,
        4,
        6,
        8,
        10,
        12
      ],
      "name": "Root"
    },
    {
      "children": [
        3
      ],
      "matrix": [
        -0.29086000000000006,
        0.9551700000000001,
        -0.05519000000000001,
        0.0,
        -0.7711,
        -0.19988000000000003,
        0.6045200000000001,
        0.0,
        0.5663900000000001,
        0.21839000000000003,
        0.7946700000000001,
        0.0,
        4.076250000000001,
        1.00545,
        5.903860000000001,
        1.0
      ],
      "name": "Lamp"
    },
    {
      "name": "Lamp"
    },
    {
      "children": [
        5
      ],
      "name": "Snowflakes",
      "translation": [
        -12.0,
        0.0,
        0.0
      ]
    },
    {
      "mesh": 0,
      "name": "Snowflakes_0"
    },
    {
      "children": [
        7
      ],
      "name": "Snowflakes.003",
      "rotation": [
        0.0,
        0.0,
        1.0,
        0.0
      ],
      "translation": [
        24.0,
        0.0,
        0.0
      ]
    },
    {
      "mesh": 1,
      "name": "Snowflakes.003_0"
    },
    {
      "children": [
        9
      ],
      "name": "Sun"
    },
    {
      "name": "Sun"
    },
    {
      "children": [
        11
      ],
      "name": "Snowflakes.001",
      "rotation": [
        0.0,
        0.0,
        -0.4999980330467224,
        0.8660265803337097
      ]
    },
    {
      "mesh": 2,
      "name": "Snowflakes.001_0"
    },
    {
      "children": [
        13
      ],
      "name": "Snowflakes.002",
      "rotation": [
        0.0,
        0.0,
        -0.8660265803337097,
        0.4999980330467224
      ],
      "translation": [
        12.0,
        0.0,
        0.0
      ]
    },
    {
      "mesh": 3,
      "name": "Snowflakes.002_0"
    }
  ],
  "samplers": [
    {
      "magFilter": 9729,
      "minFilter": 9987,
      "wrapS": 10497,
      "wrapT": 10497
    }
  ],
  "scene": 0,
  "scenes": [
    {
      "name": "Sketchfab_Scene",
      "nodes": [
        0
      ]
    }
  ],
  "textures": [
    {
      "sampler": 0,
      "source": 0
    },
    {
      "sampler": 0,
      "source": 1
    }
  ]
}
